<?xml version="1.0" encoding="utf-8"?>
<svg width="100px" height="17px" viewBox="0 0 100 17" version="1.1" xmlns:xlink="http://www.w3.org/1999/xlink" xmlns="http://www.w3.org/2000/svg">
  <desc>Created with Lunacy</desc>
  <g id="logo-/-horizontal-/-black">
    <path d="M4.79925 0L0.0107234 16.9618L0 17L3.31832 17L4.23042 13.4819L8.61985 13.4819L9.5566 17L12.9981 17L8.17403 0L4.79925 0ZM65.3031 0L60.5145 16.9618L60.5037 17L63.8221 17L64.7342 13.4819L69.1236 13.4819L70.0602 17L73.5019 17L68.6778 0L65.3031 0ZM17.9669 0.0722902L13.6714 0.0722902L13.6714 17L17.9669 17C22.4934 17 25.1958 13.908 25.1958 8.72892L25.1958 8.34325C25.1958 3.16426 22.4934 0.0722902 17.9669 0.0722902ZM36.8581 5.69273L36.8581 5.54815C36.8581 3.86909 36.3607 2.4951 35.4194 1.57508C34.4136 0.591936 32.9143 0.0722902 31.0837 0.0722902L26.1719 0.0722902L26.1719 17L29.5368 17L29.5368 11.2891L30.9403 11.2891L33.5287 17L37.2696 17L34.2294 10.4523C35.9494 9.49254 36.8581 7.84734 36.8581 5.69273ZM46.5064 10.0121L41.4777 10.0121L41.4777 13.9518L47.2708 13.9518L47.2708 17L38.1375 17L38.1375 0.0722902L47.172 0.0722902L47.172 3.12041L41.4777 3.12041L41.4777 6.96383L46.5064 6.96383L46.5064 10.0121ZM56.5296 9.18411L51.6736 0.0722902L48.5673 0.0722902L48.5673 17L51.8583 17L51.8583 7.50276L56.9028 16.9837L56.9114 17L59.8205 17L59.8205 0.0722902L56.5296 0.0722902L56.5296 9.18411ZM74.175 0.0722902L77.5399 0.0722902L77.5399 13.9277L82.4701 13.9277L82.4701 17L74.175 17L74.175 0.0722902ZM83.4268 17L86.767 17L86.767 0.0722902L83.4268 0.0722902L83.4268 17ZM96.4596 9.18411L96.4596 0.0722902L99.7506 0.0722902L99.7506 17L96.8415 17L96.8328 16.9837L91.7882 7.50276L91.7882 17L88.4974 17L88.4974 0.0722902L91.6035 0.0722902L91.6123 0.088435L96.4596 9.18411ZM17.9176 3.07233L17.0363 3.07233L17.0363 14L17.9176 14C19.099 14 20.0269 13.5744 20.6755 12.7349C21.3767 11.8272 21.7323 10.455 21.7323 8.65663L21.7323 8.41566C21.7323 6.6172 21.3767 5.24513 20.6755 4.33741C20.0269 3.49788 19.099 3.07233 17.9176 3.07233ZM30.7385 3.09631L29.5368 3.09631L29.5368 8.36144L30.8125 8.36144C32.5162 8.36144 33.4932 7.39746 33.4932 5.71683C33.4932 3.97801 32.5664 3.09631 30.7385 3.09631ZM5.03505 10.5542L7.81547 10.5542L6.44917 5.16537L5.03505 10.5542ZM65.5388 10.5542L68.3192 10.5542L66.9529 5.16537L65.5388 10.5542Z" id="Fill-1" fill="#0A0B09" fill-rule="evenodd" stroke="none" />
  </g>
</svg>